<svg width="48" height="48" viewBox="0 0 48 48" fill="none" xmlns="http://www.w3.org/2000/svg">
<path fill-rule="evenodd" clip-rule="evenodd" d="M9.16802 12.0002C8.16012 14.3072 6.30697 16.1604 4 17.1684V30.8321C6.30697 31.84 8.16012 33.6932 9.16802 36.0002H38.832C39.8399 33.6932 41.693 31.84 44 30.8321V17.1684C41.693 16.1604 39.8399 14.3072 38.832 12.0002H9.16802ZM6 8.00049C6 11.3142 3.31371 14.0005 0 14.0005V34C3.31371 34 6 36.6863 6 40L42 40.0002C42 36.6865 44.6863 34 48 34V14.0005C44.6863 14.0005 42 11.3142 42 8.00049H6Z" fill="white"/>
<path d="M30 24C30 27.3137 27.3137 30 24 30C20.6863 30 18 27.3137 18 24C18 20.6863 20.6863 18 24 18C27.3137 18 30 20.6863 30 24Z" fill="white"/>
</svg>
