<svg width="24" height="24" viewBox="0 0 24 24" fill="none" xmlns="http://www.w3.org/2000/svg">
<path fill-rule="evenodd" clip-rule="evenodd" d="M8.99902 20C8.08833 19.3158 7.29826 18.4797 6.66642 17.5293C4.51192 16.6189 3 14.486 3 12C3 9.51399 4.51192 7.38111 6.66642 6.47071C7.29826 5.52033 8.08833 4.68422 8.99902 4C4.58119 4.00053 1 7.58205 1 12C1 16.418 4.58119 19.9995 8.99902 20Z" fill="#0000FF"/>
<path fill-rule="evenodd" clip-rule="evenodd" d="M15 18C18.3137 18 21 15.3137 21 12C21 8.68629 18.3137 6 15 6C11.6863 6 9 8.68629 9 12C9 15.3137 11.6863 18 15 18ZM15 20C19.4183 20 23 16.4183 23 12C23 7.58172 19.4183 4 15 4C10.5817 4 7 7.58172 7 12C7 16.4183 10.5817 20 15 20Z" fill="#0000FF"/>
<path d="M15 16L19 12L15 8L15 16Z" fill="#0000FF"/>
<path d="M11 13L11 11L15 11L15 13L11 13Z" fill="#0000FF"/>
</svg>
