<svg width="24" height="24" viewBox="0 0 24 24" fill="none" xmlns="http://www.w3.org/2000/svg">
<path fill-rule="evenodd" clip-rule="evenodd" d="M8.49964 3V8.33264H9.5553V9.67747C10.3353 9.83581 11.0613 10.1427 11.7026 10.5673L12.6544 9.61557L14.3829 11.3441L13.4313 12.2957C13.8563 12.9372 14.1635 13.6636 14.3219 14.4439H15.6666V16.8884H14.322C14.1828 17.5745 13.9287 18.2189 13.5805 18.8005H21.0001V3H8.49964ZM13.5698 20.8005H22.0001C22.5524 20.8005 23.0001 20.3528 23.0001 19.8005V2C23.0001 1.44772 22.5524 1 22.0001 1H7.49964C6.94736 1 6.49964 1.44771 6.49964 2V9.83496C5.94989 10.0076 5.43362 10.2559 4.963 10.5675L4.0117 9.61623L2.28317 11.3448L3.23438 12.296C2.8095 12.9374 2.50242 13.6637 2.344 14.4439H0.999514L0.999512 16.8884H2.34388C2.5022 17.6686 2.80913 18.3948 3.23383 19.0361L2.28323 19.9867L4.01176 21.7153L4.96217 20.7649C5.60377 21.1899 6.33028 21.4971 7.1108 21.6555V22.9997H9.5553V21.6555C10.3138 21.5015 11.0212 21.2071 11.6493 20.8005H11.7389L12.6543 21.7159L13.5698 20.8005ZM8.33296 19.7777C10.6036 19.7777 12.4442 17.9371 12.4442 15.6665C12.4442 13.3959 10.6036 11.5552 8.33296 11.5552C6.06237 11.5552 4.22169 13.3959 4.22169 15.6665C4.22169 17.9371 6.06237 19.7777 8.33296 19.7777ZM9.7998 4.2999H19.7001V5.39993H9.7998V4.2999ZM16.4 6.5H9.7998V7.60003H16.4V6.5Z" fill="#0000FF"/>
</svg>
