<svg width="138" height="48" viewBox="0 0 138 48" fill="none" xmlns="http://www.w3.org/2000/svg">
<path d="M23.5 1.5C10.8 1.5 0.5 11.8 0.5 24.5C0.5 37.2 10.8 47.5 23.5 47.5C36.2 47.5 46.5 37.2 46.5 24.5C46.5 11.8 36.2 1.5 23.5 1.5ZM45.5 24H37V17H31V3.8C39.3 6.8 45.3 14.7 45.5 24ZM13 29V20H34V29H13ZM30 3.5V17H17V3.5C19.1 2.9 21.2 2.5 23.5 2.5C25.8 2.5 27.9 2.8 30 3.5ZM16 3.8V17H10V24H1.5C1.7 14.7 7.7 6.8 16 3.8ZM1.5 25H10V32H16V45.2C7.7 42.2 1.7 34.3 1.5 25ZM17 45.5V32H30V45.5C27.9 46.1 25.8 46.5 23.5 46.5C21.2 46.5 19.1 46.2 17 45.5ZM31 45.2V32H37V25H45.5C45.3 34.3 39.3 42.2 31 45.2Z" fill="#F57C00"/>
<path d="M30 23H17V26H30V23Z" fill="#F57C00"/>
<path d="M63 38L56.7 12.1H58.4L63.9 35L68.9 12.1H70.6L64.7 38H63Z" fill="#F57C00"/>
<path d="M77.1 38V12.1H86.1V13.5H78.9V23.9H84.8V25.2H78.9V36.6H86.2V38H77.1Z" fill="#F57C00"/>
<path d="M91.2 38L96.9 24.6L91.2 12.1H92.8L97.9 23.2L102.9 12.1H104.6L98.7 24.8L104.7 38H103L97.7 26.4L92.9 38H91.2Z" fill="#F57C00"/>
<path d="M110.9 38V12.1H119.9V13.5H112.7V23.9H118.6V25.2H112.7V36.6H120V38H110.9Z" fill="#F57C00"/>
<path d="M126.9 38V12.1H128.6V36.6H136.4V38H126.9Z" fill="#F57C00"/>
</svg>
