<svg width="80" height="24" viewBox="0 0 80 24" fill="none" xmlns="http://www.w3.org/2000/svg">
<path d="M14 8H16V2H14V8Z" fill="#F57C00"/>
<path d="M18 11L18 13L23 13L23 11L18 11Z" fill="#F57C00"/>
<path d="M1 11L1 13L6 13L6 11L1 11Z" fill="#F57C00"/>
<path d="M14 22H16V16H14V22Z" fill="#F57C00"/>
<path d="M8 8H10V2H8V8Z" fill="#F57C00"/>
<path d="M8 22H10V16H8V22Z" fill="#F57C00"/>
<path fill-rule="evenodd" clip-rule="evenodd" d="M12 22C17.5228 22 22 17.5228 22 12C22 6.47715 17.5228 2 12 2C6.47715 2 2 6.47715 2 12C2 17.5228 6.47715 22 12 22ZM12 24C18.6274 24 24 18.6274 24 12C24 5.37258 18.6274 0 12 0C5.37258 0 0 5.37258 0 12C0 18.6274 5.37258 24 12 24Z" fill="#F57C00"/>
<path fill-rule="evenodd" clip-rule="evenodd" d="M16 10H8V14H16V10ZM6 8V16H18V8H6Z" fill="#F57C00"/>
<path d="M40.368 6.04001H42.064L44.112 15.592L46.064 6.04001H47.712L44.848 19H43.264L40.368 6.04001Z" fill="#F57C00"/>
<path d="M49.8861 6.04001H54.9101V7.38401H51.6941V11.672H54.3021V12.952H51.6941V17.704H54.9421V19H49.8861V6.04001Z" fill="#F57C00"/>
<path d="M59.1057 12.216L56.4497 6.04001H58.1297L60.0977 10.616L61.8897 6.04001H63.5697L60.8497 12.36L63.6977 19H62.0177L59.9057 14.12L58.0817 19H56.4017L59.1057 12.216Z" fill="#F57C00"/>
<path d="M65.7205 6.04001H70.7445V7.38401H67.5285V11.672H70.1365V12.952H67.5285V17.704H70.7765V19H65.7205V6.04001Z" fill="#F57C00"/>
<path d="M73.0361 6.04001H74.8441V17.704H78.1561V19H73.0361V6.04001Z" fill="#F57C00"/>
</svg>
