<?xml version="1.0" encoding="utf-8"?><svg viewBox="0 0 138 48" xmlns="http://www.w3.org/2000/svg" xmlns:xlink="http://www.w3.org/1999/xlink"><style>:root>svg{display:none}:root>svg:target{display:block}</style><svg viewBox="0 0 24 24" id="icon-api" xmlns="http://www.w3.org/2000/svg"><path fill-rule="evenodd" clip-rule="evenodd" d="M8.5 3v5.333h1.055v1.344c.78.159 1.506.466 2.148.89l.951-.951 1.729 1.728-.952.952c.425.641.733 1.368.89 2.148h1.346v2.444h-1.345a6.07 6.07 0 01-.741 1.912H21V3H8.5zm5.07 17.8H22a1 1 0 001-1V2a1 1 0 00-1-1H7.5a1 1 0 00-1 1v7.835c-.55.173-1.066.42-1.537.732l-.951-.95-1.729 1.728.951.951a6.077 6.077 0 00-.89 2.148H1v2.444h1.344c.158.78.465 1.507.89 2.148l-.95.95 1.728 1.73.95-.951a6.077 6.077 0 002.149.89V23h2.444v-1.345a6.075 6.075 0 002.094-.855h.09l.915.916.916-.916zm-5.237-1.022a4.111 4.111 0 100-8.223 4.111 4.111 0 000 8.223zM9.8 4.3h9.9v1.1H9.8V4.3zm6.6 2.2H9.8v1.1h6.6V6.5z"/></svg><svg viewBox="0 0 24 24" id="icon-continue" xmlns="http://www.w3.org/2000/svg"><path d="M9 16.17L4.83 12l-1.42 1.41L9 19 21 7l-1.41-1.41L9 16.17z"/></svg><svg viewBox="0 0 24 24" id="icon-dashboard" xmlns="http://www.w3.org/2000/svg"><path fill-rule="evenodd" clip-rule="evenodd" d="M9 4H4v5h5V4zM2 2v9h9V2H2zM9 15H4v5h5v-5zm-7-2v9h9v-9H2zM20 4h-5v5h5V4zm-7-2v9h9V2h-9zM20 15h-5v5h5v-5zm-7-2v9h9v-9h-9z"/></svg><svg viewBox="0 0 24 24" id="icon-faq" xmlns="http://www.w3.org/2000/svg"><path d="M10 19h3v3h-3v-3zm2-17c5.35.22 7.68 5.62 4.5 9.67-.83 1-2.17 1.66-2.83 2.5C13 15 13 16 13 17h-3c0-1.67 0-3.08.67-4.08.66-1 2-1.59 2.83-2.25C15.92 8.43 15.32 5.26 12 5a3 3 0 00-3 3H6a6 6 0 016-6z"/></svg><svg viewBox="0 0 48 48" id="icon-history" xmlns="http://www.w3.org/2000/svg"><path d="M22 24h4V8h-4v16zM22 28h16v-4H22v4z"/><path fill-rule="evenodd" clip-rule="evenodd" d="M24 44c11.046 0 20-8.954 20-20S35.046 4 24 4 4 12.954 4 24s8.954 20 20 20zm0 4c13.255 0 24-10.745 24-24S37.255 0 24 0 0 10.745 0 24s10.745 24 24 24z"/></svg><svg viewBox="0 0 24 24" id="icon-invoices" xmlns="http://www.w3.org/2000/svg"><path fill-rule="evenodd" clip-rule="evenodd" d="M2 23l2-2 2 2 3-2 3 2 3-2 3 2 2-2 2 2V1l-2 2-2-2-3 2-3-2-3 2-3-2-2 2-2-2v22zM4 5.828v12.344l2.255 2.254L9 18.596l3 2 3-2 2.745 1.83L20 18.172V5.828l-2.255-2.254L15 5.404l-3-2-3 2-2.745-1.83L4 5.828z"/><path fill-rule="evenodd" clip-rule="evenodd" d="M18 9H6V7h12v2zM18 13H6v-2h12v2zM18 17H6v-2h12v2z"/></svg><svg viewBox="0 0 24 24" id="icon-login" xmlns="http://www.w3.org/2000/svg"><path fill-rule="evenodd" clip-rule="evenodd" d="M6 21v-2h11V5H6V3h13v18H6z"/><path d="M10 16l4-4-4-4v8zM2 13v-2h8v2H2z"/></svg><svg viewBox="0 0 24 24" id="icon-menu" xmlns="http://www.w3.org/2000/svg"><path d="M0 5h24v2H0V5zM0 11h24v2H0v-2zM0 17h24v2H0v-2z"/></svg><svg viewBox="0 0 24 24" id="icon-payouts" xmlns="http://www.w3.org/2000/svg"><path fill-rule="evenodd" clip-rule="evenodd" d="M8.999 20c-.91-.684-1.7-1.52-2.333-2.47a6.002 6.002 0 010-11.06A10.056 10.056 0 019 4a8 8 0 000 16z"/><path fill-rule="evenodd" clip-rule="evenodd" d="M15 18a6 6 0 100-12 6 6 0 000 12zm0 2a8 8 0 100-16 8 8 0 000 16z"/><path d="M15 16l4-4-4-4v8zM11 13v-2h4v2h-4z"/></svg><svg viewBox="0 0 24 24" id="icon-plus" xmlns="http://www.w3.org/2000/svg"><path fill-rule="evenodd" clip-rule="evenodd" d="M22 13H2v-2h20v2z"/><path fill-rule="evenodd" clip-rule="evenodd" d="M11 22V2h2v20h-2z"/></svg><svg viewBox="0 0 48 48" id="icon-saved" xmlns="http://www.w3.org/2000/svg"><path fill-rule="evenodd" clip-rule="evenodd" d="M34.204 8H8v32h32V14.52L34.204 8zM36 4H4v40h40V13l-8-9z"/><path fill-rule="evenodd" clip-rule="evenodd" d="M28 8h-8v4h8V8zM16 4v12h16V4H16zM32 24H16v16h16V24zm-20-4v24h24V20H12z"/></svg><svg viewBox="0 0 24 24" id="icon-triangle" xmlns="http://www.w3.org/2000/svg"><path d="M14 6l-6 6 6 6V6z"/></svg><svg viewBox="0 0 24 24" id="icon-users" xmlns="http://www.w3.org/2000/svg"><path d="M9 13.75c-2.34 0-7 1.17-7 3.5V19h14v-1.75c0-2.33-4.66-3.5-7-3.5zM4.34 17c.84-.58 2.87-1.25 4.66-1.25s3.82.67 4.66 1.25H4.34zM9 12c1.93 0 3.5-1.57 3.5-3.5S10.93 5 9 5 5.5 6.57 5.5 8.5 7.07 12 9 12zm0-5c.83 0 1.5.67 1.5 1.5S9.83 10 9 10s-1.5-.67-1.5-1.5S8.17 7 9 7zm7.04 6.81c1.16.84 1.96 1.96 1.96 3.44V19h4v-1.75c0-2.02-3.5-3.17-5.96-3.44zM15 12c1.93 0 3.5-1.57 3.5-3.5S16.93 5 15 5c-.54 0-1.04.13-1.5.35.63.89 1 1.98 1 3.15s-.37 2.26-1 3.15c.46.22.96.35 1.5.35z"/></svg><svg viewBox="0 0 48 48" id="icon-voucher" xmlns="http://www.w3.org/2000/svg"><path fill-rule="evenodd" clip-rule="evenodd" d="M9.168 12A10.037 10.037 0 014 17.168v13.664A10.036 10.036 0 019.168 36h29.664A10.036 10.036 0 0144 30.832V17.168A10.037 10.037 0 0138.832 12H9.168zM6 8a6 6 0 01-6 6v20a6 6 0 016 6h36a6 6 0 016-6V14a6 6 0 01-6-6H6z"/><path d="M30 24a6 6 0 11-12 0 6 6 0 0112 0z"/></svg><svg viewBox="0 0 138 48" id="logo-lg" xmlns="http://www.w3.org/2000/svg"><path d="M23.5 1.5c-12.7 0-23 10.3-23 23s10.3 23 23 23 23-10.3 23-23-10.3-23-23-23zm22 22.5H37v-7h-6V3.8c8.3 3 14.3 10.9 14.5 20.2zM13 29v-9h21v9H13zM30 3.5V17H17V3.5c2.1-.6 4.2-1 6.5-1s4.4.3 6.5 1zm-14 .3V17h-6v7H1.5C1.7 14.7 7.7 6.8 16 3.8zM1.5 25H10v7h6v13.2C7.7 42.2 1.7 34.3 1.5 25zM17 45.5V32h13v13.5c-2.1.6-4.2 1-6.5 1s-4.4-.3-6.5-1zm14-.3V32h6v-7h8.5c-.2 9.3-6.2 17.2-14.5 20.2z"/><path d="M30 23H17v3h13v-3zM63 38l-6.3-25.9h1.7L63.9 35l5-22.9h1.7L64.7 38H63zM77.1 38V12.1h9v1.4h-7.2v10.4h5.9v1.3h-5.9v11.4h7.3V38h-9.1zM91.2 38l5.7-13.4-5.7-12.5h1.6l5.1 11.1 5-11.1h1.7l-5.9 12.7 6 13.2H103l-5.3-11.6L92.9 38h-1.7zM110.9 38V12.1h9v1.4h-7.2v10.4h5.9v1.3h-5.9v11.4h7.3V38h-9.1zM126.9 38V12.1h1.7v24.5h7.8V38h-9.5z"/></svg><svg viewBox="0 0 80 24" id="logo-sm" xmlns="http://www.w3.org/2000/svg"><path d="M14 8h2V2h-2v6zM18 11v2h5v-2h-5zM1 11v2h5v-2H1zM14 22h2v-6h-2v6zM8 8h2V2H8v6zM8 22h2v-6H8v6z"/><path fill-rule="evenodd" clip-rule="evenodd" d="M12 22c5.523 0 10-4.477 10-10S17.523 2 12 2 2 6.477 2 12s4.477 10 10 10zm0 2c6.627 0 12-5.373 12-12S18.627 0 12 0 0 5.373 0 12s5.373 12 12 12z"/><path fill-rule="evenodd" clip-rule="evenodd" d="M16 10H8v4h8v-4zM6 8v8h12V8H6z"/><path d="M40.368 6.04h1.696l2.048 9.552 1.952-9.552h1.648L44.848 19h-1.584L40.368 6.04zM49.886 6.04h5.024v1.344h-3.216v4.288h2.608v1.28h-2.608v4.752h3.248V19h-5.056V6.04zM59.106 12.216L56.45 6.04h1.68l1.968 4.576L61.89 6.04h1.68l-2.72 6.32L63.698 19h-1.68l-2.112-4.88L58.082 19h-1.68l2.704-6.784zM65.72 6.04h5.025v1.344h-3.217v4.288h2.608v1.28h-2.608v4.752h3.248V19h-5.055V6.04zM73.036 6.04h1.808v11.664h3.312V19h-5.12V6.04z"/></svg></svg>